<svg width="292" height="117" viewBox="0 0 292 117" fill="none" xmlns="http://www.w3.org/2000/svg">
<g clip-path="url(#clip0_2033_162)">
<mask id="mask0_2033_162" style="mask-type:luminance" maskUnits="userSpaceOnUse" x="70" y="22" width="103" height="53">
<path d="M172.08 22.6667H70.7467V74.6667H172.08V22.6667Z" fill="white"/>
</mask>
<g mask="url(#mask0_2033_162)">
<path d="M89.355 56.4979H80.0633L78.5841 60.8937H72.23L81.2508 35.9979H88.2716L97.2716 60.8937H90.855L89.355 56.4979ZM87.7925 51.8104L84.7091 42.7062L81.6675 51.8104H87.7925Z" fill="black"/>
<path d="M106.444 55.9354H117.152V60.8937H99.569V56.2895L110.215 40.9562H99.569V35.9979H117.152V40.602L106.444 55.9354Z" fill="black"/>
<path d="M136.617 56.4979H127.325L125.846 60.8937H119.492L128.513 35.9979H135.534L144.534 60.8937H138.117L136.617 56.4979ZM135.054 51.8104L131.971 42.7062L128.929 51.8104H135.054Z" fill="black"/>
<path d="M156.581 35.9979C159.206 35.9979 161.498 36.5187 163.456 37.5604C165.425 38.602 166.946 40.0708 168.018 41.9562C169.086 43.8312 169.623 45.9979 169.623 48.4562C169.623 50.8885 169.086 53.0499 168.018 54.9354C166.946 56.826 165.419 58.2895 163.435 59.3312C161.461 60.3729 159.175 60.8937 156.581 60.8937H147.268V35.9979H156.581ZM156.185 55.6437C158.487 55.6437 160.274 55.0187 161.539 53.7687C162.815 52.5187 163.456 50.7479 163.456 48.4562C163.456 46.1645 162.815 44.3833 161.539 43.102C160.274 41.826 158.487 41.1854 156.185 41.1854H153.331V55.6437H156.185Z" fill="black"/>
</g>
<mask id="mask1_2033_162" style="mask-type:luminance" maskUnits="userSpaceOnUse" x="80" y="65" width="206" height="19">
<path d="M285.413 65.3333H80.08V84H285.413V65.3333Z" fill="white"/>
</mask>
<g mask="url(#mask1_2033_162)">
<path d="M88.4031 69.4022V71.1105H86.0906V78.1313H83.9656V71.1105H81.6531V69.4022H88.4031Z" fill="black"/>
<path d="M97.9507 78.2147C97.1278 78.2147 96.3778 78.0272 95.7007 77.6522C95.0184 77.2667 94.4768 76.7303 94.0757 76.048C93.6695 75.3709 93.4716 74.6001 93.4716 73.7355C93.4716 72.8917 93.6695 72.1261 94.0757 71.4438C94.4768 70.7667 95.0184 70.2355 95.7007 69.8605C96.3778 69.4751 97.1278 69.2772 97.9507 69.2772C98.7684 69.2772 99.5184 69.4751 100.201 69.8605C100.893 70.2355 101.435 70.7667 101.826 71.4438C102.227 72.1261 102.43 72.8917 102.43 73.7355C102.43 74.6001 102.227 75.3709 101.826 76.048C101.419 76.7303 100.878 77.2667 100.201 77.6522C99.5184 78.0272 98.7684 78.2147 97.9507 78.2147ZM97.9507 76.2772C98.6434 76.2772 99.2007 76.048 99.6174 75.5897C100.044 75.1209 100.263 74.5011 100.263 73.7355C100.263 72.9751 100.044 72.3605 99.6174 71.9022C99.2007 71.4334 98.6434 71.1938 97.9507 71.1938C97.2424 71.1938 96.6799 71.423 96.2632 71.8813C95.8466 72.3397 95.6382 72.9595 95.6382 73.7355C95.6382 74.5167 95.8466 75.1313 96.2632 75.5897C96.6799 76.048 97.2424 76.2772 97.9507 76.2772Z" fill="black"/>
<path d="M110.028 69.4022V74.6313C110.028 75.147 110.153 75.548 110.403 75.8397C110.663 76.1209 111.049 76.2563 111.549 76.2563C112.049 76.2563 112.429 76.1209 112.695 75.8397C112.955 75.548 113.091 75.147 113.091 74.6313V69.4022H115.216V74.6105C115.216 75.3917 115.049 76.048 114.716 76.5897C114.382 77.1313 113.934 77.5428 113.382 77.8188C112.825 78.0845 112.2 78.2147 111.507 78.2147C110.825 78.2147 110.216 78.0845 109.674 77.8188C109.132 77.5428 108.7 77.1313 108.382 76.5897C108.059 76.048 107.903 75.3917 107.903 74.6105V69.4022H110.028Z" fill="black"/>
<path d="M125.515 78.1313L123.702 74.8397H123.181V78.1313H121.056V69.4022H124.619C125.311 69.4022 125.9 69.5272 126.39 69.7772C126.874 70.0167 127.233 70.3397 127.473 70.7563C127.707 71.173 127.827 71.6417 127.827 72.1522C127.827 72.7355 127.66 73.2563 127.327 73.7147C127.004 74.1626 126.525 74.4803 125.89 74.673L127.91 78.1313H125.515ZM123.181 73.3397H124.494C124.879 73.3397 125.171 73.2459 125.369 73.048C125.577 72.8553 125.681 72.5845 125.681 72.2355C125.681 71.9022 125.577 71.647 125.369 71.4647C125.171 71.272 124.879 71.173 124.494 71.173H123.181V73.3397Z" fill="black"/>
<path d="M136.675 78.2147C136.035 78.2147 135.456 78.1105 134.946 77.9022C134.446 77.6938 134.04 77.3917 133.738 76.9855C133.43 76.5845 133.269 76.1001 133.259 75.5272H135.529C135.555 75.8501 135.665 76.0897 135.863 76.2563C136.055 76.423 136.305 76.5063 136.613 76.5063C136.915 76.5063 137.16 76.4386 137.342 76.298C137.535 76.147 137.634 75.9438 137.634 75.6938C137.634 75.4751 137.555 75.2928 137.404 75.1522C137.264 75.0167 137.081 74.9022 136.863 74.8188C136.654 74.7251 136.352 74.6209 135.967 74.5063C135.41 74.3292 134.951 74.1522 134.592 73.9855C134.227 73.8084 133.915 73.548 133.654 73.2147C133.404 72.8709 133.279 72.423 133.279 71.8813C133.279 71.0636 133.571 70.423 134.154 69.9647C134.748 69.5063 135.519 69.2772 136.467 69.2772C137.425 69.2772 138.196 69.5063 138.779 69.9647C139.373 70.423 139.696 71.0636 139.738 71.8813H137.446C137.415 71.6053 137.305 71.3917 137.113 71.2355C136.93 71.0688 136.696 70.9855 136.404 70.9855C136.139 70.9855 135.925 71.0584 135.759 71.1938C135.602 71.3188 135.529 71.5167 135.529 71.7772C135.529 72.0584 135.66 72.2772 135.925 72.4438C136.201 72.6001 136.618 72.7667 137.175 72.9438C137.743 73.1417 138.201 73.3292 138.55 73.5063C138.894 73.673 139.196 73.923 139.446 74.2563C139.706 74.5897 139.842 75.0167 139.842 75.5272C139.842 76.0272 139.717 76.4855 139.467 76.9022C139.217 77.3084 138.847 77.6261 138.363 77.8605C137.889 78.1001 137.326 78.2147 136.675 78.2147Z" fill="black"/>
<path d="M157.918 76.5897H154.647L154.126 78.1313H151.918L155.063 69.4022H157.522L160.688 78.1313H158.438L157.918 76.5897ZM157.376 74.9438L156.293 71.7563L155.209 74.9438H157.376Z" fill="black"/>
<path d="M173.802 78.1313H171.677L168.115 72.7355V78.1313H165.99V69.4022H168.115L171.677 74.8188V69.4022H173.802V78.1313Z" fill="black"/>
<path d="M182.957 69.4022C183.873 69.4022 184.67 69.5845 185.352 69.9438C186.045 70.3084 186.582 70.8188 186.957 71.4855C187.342 72.1417 187.54 72.897 187.54 73.7563C187.54 74.6209 187.342 75.3813 186.957 76.048C186.582 76.7042 186.045 77.2147 185.352 77.5897C184.67 77.9542 183.873 78.1313 182.957 78.1313H179.686V69.4022H182.957ZM182.811 76.298C183.613 76.298 184.238 76.0792 184.686 75.6313C185.144 75.1886 185.373 74.5636 185.373 73.7563C185.373 72.9647 185.144 72.3501 184.686 71.9022C184.238 71.4438 183.613 71.2147 182.811 71.2147H181.811V76.298H182.811Z" fill="black"/>
<path d="M206.321 69.4022V71.1105H204.009V78.1313H201.884V71.1105H199.571V69.4022H206.321Z" fill="black"/>
<path d="M216.202 78.1313L214.39 74.8397H213.869V78.1313H211.744V69.4022H215.306C215.999 69.4022 216.588 69.5272 217.077 69.7772C217.561 70.0167 217.921 70.3397 218.16 70.7563C218.395 71.173 218.515 71.6417 218.515 72.1522C218.515 72.7355 218.348 73.2563 218.015 73.7147C217.692 74.1626 217.213 74.4803 216.577 74.673L218.598 78.1313H216.202ZM213.869 73.3397H215.181C215.567 73.3397 215.858 73.2459 216.056 73.048C216.265 72.8553 216.369 72.5845 216.369 72.2355C216.369 71.9022 216.265 71.647 216.056 71.4647C215.858 71.272 215.567 71.173 215.181 71.173H213.869V73.3397Z" fill="black"/>
<path d="M229.634 76.5897H226.363L225.842 78.1313H223.634L226.779 69.4022H229.238L232.404 78.1313H230.154L229.634 76.5897ZM229.092 74.9438L228.009 71.7563L226.925 74.9438H229.092Z" fill="black"/>
<path d="M245.893 69.4022L242.81 78.1313H240.143L237.039 69.4022H239.31L241.476 75.9855L243.643 69.4022H245.893Z" fill="black"/>
<path d="M253.253 71.1105V72.8605H256.107V74.5063H253.253V76.423H256.482V78.1313H251.128V69.4022H256.482V71.1105H253.253Z" fill="black"/>
<path d="M264.325 76.4855H267.116V78.1313H262.2V69.4022H264.325V76.4855Z" fill="black"/>
<path d="M275.642 78.2147C275.001 78.2147 274.423 78.1105 273.913 77.9022C273.413 77.6938 273.006 77.3917 272.704 76.9855C272.397 76.5845 272.236 76.1001 272.225 75.5272H274.496C274.522 75.8501 274.631 76.0897 274.829 76.2563C275.022 76.423 275.272 76.5063 275.579 76.5063C275.881 76.5063 276.126 76.4386 276.309 76.298C276.501 76.147 276.6 75.9438 276.6 75.6938C276.6 75.4751 276.522 75.2928 276.371 75.1522C276.23 75.0167 276.048 74.9022 275.829 74.8188C275.621 74.7251 275.319 74.6209 274.934 74.5063C274.376 74.3292 273.918 74.1522 273.559 73.9855C273.194 73.8084 272.881 73.548 272.621 73.2147C272.371 72.8709 272.246 72.423 272.246 71.8813C272.246 71.0636 272.538 70.423 273.121 69.9647C273.715 69.5063 274.486 69.2772 275.434 69.2772C276.392 69.2772 277.163 69.5063 277.746 69.9647C278.34 70.423 278.663 71.0636 278.704 71.8813H276.413C276.381 71.6053 276.272 71.3917 276.079 71.2355C275.897 71.0688 275.663 70.9855 275.371 70.9855C275.105 70.9855 274.892 71.0584 274.725 71.1938C274.569 71.3188 274.496 71.5167 274.496 71.7772C274.496 72.0584 274.626 72.2772 274.892 72.4438C275.168 72.6001 275.585 72.7667 276.142 72.9438C276.71 73.1417 277.168 73.3292 277.517 73.5063C277.861 73.673 278.163 73.923 278.413 74.2563C278.673 74.5897 278.809 75.0167 278.809 75.5272C278.809 76.0272 278.684 76.4855 278.434 76.9022C278.184 77.3084 277.814 77.6261 277.329 77.8605C276.855 78.1001 276.293 78.2147 275.642 78.2147Z" fill="black"/>
</g>
<path d="M53.1135 7H61.9338L66.8818 7.64509L72.26 8.93528L77.208 10.6555L80.6501 12.3758L83.2317 13.666L86.6738 15.8163L90.331 18.6117L92.4823 20.547L94.2033 22.0522L94.8487 22.6973L96.3546 24.4175L97 25.4927L95.9243 25.2777L94.2033 23.7724L93.1277 23.5574L90.9764 25.2777L90.5461 25.9228V27.2129L91.6217 28.5031L91.8369 29.7933L90.9764 29.3633L89.4704 27.643L87.104 25.2777L84.0922 22.9123L81.7258 21.1921L78.4988 19.2568L75.9173 18.1816H74.4113L73.1206 19.0418L72.4752 20.1169L70.1087 25.9228L67.7423 32.1587L67.3121 33.8789L67.5272 35.5992L68.6028 36.6743L70.9693 37.9645L73.1206 39.6848L75.2719 41.62L75.9173 42.2651V42.9102L74.8416 42.6952L73.766 42.4802L71.8298 43.9854L70.9693 45.0605V46.9958L70.1087 46.5658L67.9574 44.6305L64.5154 42.6952L62.1489 41.8351L58.7069 41.19H56.3404L53.5437 41.62L50.3168 42.6952L47.305 44.4154L45.1537 46.1357L43.4326 48.286L41.7116 51.0814L40.6359 54.5219L40.2057 57.3173V59.2526L40.6359 62.263L41.7116 65.7035L43.6478 68.929L45.1537 70.6493L46.8747 72.1545L49.6714 73.8747L52.8983 75.1649L55.4799 75.595H59.5674L62.5792 74.9499L65.1608 73.8747L67.7423 72.3695L70.539 69.7891H70.9693V71.7244L72.26 73.2296L73.9811 74.5198L75.0567 74.0898L75.7021 73.8747L76.1324 74.3048L73.1206 77.3152L70.1087 79.4656L67.7423 80.7557L67.3121 81.8309L67.5272 83.9812L69.4634 89.357L72.0449 95.8079L73.1206 97.9582L74.1962 98.6033H76.3475L79.7896 96.8831L83.8771 94.3027L87.104 91.5073L91.1915 87.4217L91.4066 86.9916H91.8369L91.6217 88.2818L90.5461 89.7871L90.7612 91.2923L92.9125 93.2276H94.2033L95.9243 91.5073L97 91.2923L96.5697 92.1524L93.9882 94.9478L92.052 96.8831L89.0402 99.2484L85.1678 102.044L82.156 103.764L76.3475 106.559L70.3239 108.495L65.1608 109.57L60.4279 110H54.4043L48.8109 109.355L43.8629 108.28L39.3452 106.775L34.8274 104.839L31.3853 103.119L28.1584 100.969L25.3617 98.8184L22.565 96.453L21.2742 95.3779L19.7683 93.6576L17.4019 91.0772L15.4657 88.4969L13.3144 85.2714L10.3026 79.6806L8.36643 74.5198L7.07565 70.0042L6.21513 65.0585L6 63.1232V53.6618L6.64539 48.9311L7.72104 44.4154L9.22695 39.8998L10.948 35.8142L13.3144 31.5136L15.0355 28.9332L17.4019 25.9228L19.9835 22.9123L22.1348 20.762L23.8558 19.2568L26.6525 16.8914L29.8794 14.7411L33.5366 12.5908L37.1939 10.8706L44.2931 8.50522L49.4563 7.43006L53.1135 7ZM59.7825 7.64509L58.7069 8.07516L58.2766 10.0104V12.1608L59.3522 13.2359H62.3641L63.0095 12.5908L63.2246 11.5157V8.50522L62.3641 7.86013L59.7825 7.64509ZM51.3924 7.86013L49.6714 8.29019L49.026 8.72025L48.8109 9.79541L49.4563 13.0209L50.5319 13.666L52.8983 13.4509L53.7589 13.0209L53.974 12.5908V9.36534L53.5437 8.29019L52.6832 7.86013H51.3924ZM68.6028 9.15031L67.9574 9.79541L67.3121 12.1608V13.666L68.1726 14.5261L69.6785 14.9562H70.9693L71.8298 14.3111L72.6903 11.5157V10.4405L71.3995 9.58038L69.8936 9.15031H68.6028ZM41.7116 10.0104L39.9905 10.8706L39.5603 11.9457L40.6359 14.9562L41.2813 15.6013H42.7872L44.5083 14.9562L45.1537 14.3111V12.8058L44.5083 10.6555L44.078 10.0104H41.7116ZM77.4232 12.3758L76.3475 13.881L75.7021 15.8163L75.9173 16.8914L77.6383 17.9666L78.0686 18.1816H79.5745L80.435 17.3215L81.5106 15.1712L81.2955 13.666L79.5745 12.5908L78.9291 12.3758H77.4232ZM33.7518 13.4509L31.8156 14.5261L30.9551 15.6013L31.1702 16.8914L32.8913 19.2568L33.1064 19.4718L35.0426 19.2568L36.7636 17.9666L36.9787 17.1065L35.2577 13.666L35.0426 13.4509H33.7518ZM53.974 13.881L49.026 14.5261L44.2931 15.8163L42.1418 16.8914L41.2813 18.1816L41.0662 19.6868L42.7872 24.2025L45.3688 30.2234L46.8747 33.6639L47.7352 34.739L49.2411 35.3841L53.1135 34.524L55.0496 34.309H59.7825L62.5792 34.739L64.5154 34.9541L65.8061 34.0939L66.8818 32.3737L69.8936 23.9875L71.3995 19.9019L71.6147 18.3967L70.9693 16.6764L69.2482 15.3862L64.5154 14.3111L60.4279 13.881H53.974ZM85.8132 17.1065L84.0922 19.0418L83.4468 20.3319L83.6619 21.4071L85.383 22.9123L85.8132 23.1273H87.104L88.8251 21.4071L89.4704 20.3319L89.2553 18.8267L87.7494 17.5365L86.8889 17.1065H85.8132ZM26.4374 18.6117L24.9314 19.2568L23.6407 20.3319L23.2104 21.8372L24.9314 23.9875L26.2222 24.8476L27.513 24.4175L29.234 22.9123V21.4071L27.7281 19.4718L26.6525 18.6117H26.4374ZM36.5485 19.0418L35.0426 19.6868L32.0307 21.8372L29.6643 23.5574L27.513 25.4927L25.792 26.9979L24.2861 28.5031L22.3499 30.8685L20.4137 33.4489L17.8322 37.7495L17.617 38.3946V40.3299L18.4775 41.8351L21.9196 43.5553L24.5012 44.6305L31.8156 47.8559L32.6761 48.071H34.6123L35.9031 47.2109L37.8392 43.9854L40.2057 41.405L40.8511 40.7599V40.3299L41.7116 39.8998L44.2931 37.9645L46.0142 36.8894L46.4444 36.0292V34.309L45.5839 32.1587L43.0024 26.3528L40.4208 20.762L39.3452 19.4718L37.8392 19.0418H36.5485ZM19.3381 25.2777L18.0473 26.1378L17.1868 27.2129L16.9716 27.643V29.1482L18.6927 30.6534L19.7683 31.2985L21.2742 31.0835L22.7801 29.3633L22.9953 28.0731L21.7045 26.5679L19.9835 25.2777H19.3381ZM13.5296 33.2338L12.4539 34.524L11.8085 36.0292L12.0236 37.5344L15.0355 39.0397H16.1111L17.1868 37.9645L17.8322 36.6743V35.1691L16.1111 33.8789L14.8203 33.2338H13.5296ZM54.4043 34.9541L53.7589 35.1691L53.5437 35.5992L53.7589 38.3946L54.4043 40.3299L55.0496 40.5449L55.9102 40.1148L56.1253 39.6848L55.9102 35.8142L55.2648 34.9541H54.4043ZM58.2766 34.9541L57.8463 35.3841V39.8998L58.2766 40.3299H59.3522L59.7825 39.8998L60.2128 37.1044V35.3841L59.7825 34.9541H58.2766ZM62.5792 35.5992L62.1489 36.0292L61.5035 38.8246V40.5449L61.9338 40.9749H63.0095L63.87 39.2547L64.5154 37.1044L64.3002 35.8142L62.5792 35.5992ZM50.5319 35.8142L49.2411 36.4593L49.4563 38.1795L50.5319 40.7599L50.9622 41.19H52.0378L52.4681 40.7599L52.253 38.6096L51.6076 36.4593L50.5319 35.8142ZM66.6667 37.1044L65.8061 38.3946L64.9456 40.5449V41.8351L65.591 42.2651L66.4515 42.0501L67.3121 40.9749L68.6028 38.3946L68.1726 37.3194L66.6667 37.1044ZM46.2293 37.5344L45.3688 38.1795V39.4697L47.305 42.4802L47.5201 42.6952H48.5957L49.026 42.2651V40.9749L47.305 37.7495L46.2293 37.5344ZM70.539 39.2547L69.0331 40.9749L67.9574 42.9102L68.1726 43.7704L68.6028 44.2004L69.6785 43.9854L71.8298 41.62L72.26 40.9749L72.0449 39.8998L71.3995 39.2547H70.539ZM42.357 40.1148L41.7116 40.7599V41.8351L44.2931 44.6305L45.5839 44.8455L46.0142 44.4154V43.1253L43.8629 40.3299L42.357 40.1148ZM9.87234 41.8351L8.79669 43.1253L8.36643 45.7056L9.01182 46.7808L11.8085 47.4259H13.0993L13.9598 46.1357L14.1749 45.2756V43.3403L12.8842 42.4802L10.7329 41.8351H9.87234ZM17.4019 43.1253L15.896 43.7704L14.8203 45.0605L13.9598 48.286L13.3144 51.7265L12.8842 55.8121V60.9729L13.3144 65.0585L14.3901 70.2192L15.2506 72.3695L16.5414 73.4447L16.9716 73.6597H18.9078L24.7163 71.5094L31.1702 68.929L32.8913 68.0689L33.9669 66.7787L34.182 65.4885L33.5366 62.9081L33.3215 61.1879V56.0271L33.7518 53.0167L33.9669 52.1566V50.0063L32.461 48.501L27.7281 46.5658L22.1348 44.4154L19.3381 43.3403L17.4019 43.1253ZM39.5603 43.1253L38.6998 43.9854L38.9149 45.2756L41.9267 47.4259H43.0024L43.4326 46.9958V45.9207L41.4965 43.9854L40.2057 43.1253H39.5603ZM36.9787 46.7808L36.3333 47.6409V48.7161L37.1939 49.3612L40.2057 50.6514L41.0662 50.4363L41.4965 50.0063L41.2813 48.9311L40.2057 48.071L37.8392 46.7808H36.9787ZM35.0426 50.8664L34.6123 52.3716L35.2577 53.2317L38.6998 54.0919L39.7754 53.8768L40.2057 52.5866L39.13 51.7265L36.7636 50.8664H35.0426ZM7.72104 51.2965L7.07565 52.1566L6.86052 53.0167V55.167L7.50591 56.0271L9.01182 56.2422H11.3783L12.0236 55.5971L12.4539 53.6618L12.2388 52.1566L11.3783 51.5115L10.0875 51.2965H7.72104ZM34.6123 54.952L33.9669 55.5971V57.1023L34.8274 57.5324H38.9149L39.3452 57.3173V56.0271L38.2695 55.382L35.6879 54.952H34.6123ZM35.0426 59.2526L33.9669 59.8977V61.4029L34.3972 61.833H36.1182L38.6998 61.4029L39.3452 60.9729V59.6827L38.9149 59.2526H35.0426ZM10.0875 60.5428L7.29078 60.7578L6.86052 61.618V63.9833L7.29078 65.0585L7.93617 65.7035L11.5934 65.2735L12.4539 64.1983L12.2388 61.618L11.3783 60.5428H10.0875ZM38.2695 62.9081L35.0426 63.7683L34.6123 64.8434L35.0426 65.9186L35.9031 66.1336L38.6998 65.2735L39.9905 64.4134L40.2057 63.9833L39.9905 63.1232L39.5603 62.9081H38.2695ZM39.7754 66.3486L36.7636 67.8539L36.3333 68.2839L36.5485 69.5741L36.9787 70.0042L38.4846 69.7891L40.8511 68.2839L41.4965 67.6388L41.2813 66.5637L41.0662 66.3486H39.7754ZM32.461 68.929L28.1584 70.6493L20.6288 73.8747L18.6927 74.9499L17.8322 76.025L17.617 76.4551V78.3904L19.1229 81.4008L21.9196 85.4864L24.2861 88.2818L28.3735 92.3674L32.0307 95.1628L35.2577 97.3131L36.3333 97.7432H38.2695L39.5603 97.0981L40.4208 96.023L43.4326 89.7871L46.2293 83.3361L46.4444 82.691V80.9708L45.7991 79.8956L43.6478 78.3904L41.2813 76.6701L39.13 74.5198L36.9787 71.5094L35.6879 69.5741L34.8274 68.929H32.461ZM12.0236 69.3591L9.01182 70.0042L8.58156 70.4342V73.0146L9.22695 74.5198L9.65721 74.9499L11.5934 74.7349L13.7447 73.8747L14.1749 73.4447V71.5094L13.3144 69.5741L12.0236 69.3591ZM42.1418 69.3591L39.7754 70.8643L38.6998 71.9395L38.9149 73.2296L39.3452 73.6597H40.4208L42.5721 71.7244L43.4326 70.8643V69.7891L42.7872 69.3591H42.1418ZM44.7234 71.9395L43.0024 73.4447L41.7116 75.1649L41.9267 76.2401L43.0024 76.8852L44.078 76.2401L46.0142 73.6597V72.5845L45.3688 71.9395H44.7234ZM68.818 72.5845L67.9574 73.2296L68.1726 74.5198L70.1087 77.3152L71.3995 77.5303L72.26 76.8852L72.0449 75.595L69.6785 72.7996L68.818 72.5845ZM47.7352 74.0898L46.4444 75.595L45.3688 77.5303V78.8205L46.0142 79.2505H47.0898L48.1655 77.5303L49.026 75.81V74.5198L48.3806 74.0898H47.7352ZM65.3759 74.7349L64.9456 74.9499V76.4551L66.2364 79.2505L66.8818 79.8956L67.9574 79.6806L68.6028 79.0355L68.3877 77.7453L66.6667 74.9499L66.4515 74.7349H65.3759ZM50.9622 75.595L50.1017 76.8852L49.2411 79.2505L49.4563 80.7557L51.1773 80.9708L52.0378 79.0355L52.4681 77.5303V76.025L51.8227 75.595H50.9622ZM61.9338 76.025L61.5035 76.2401V78.1754L62.1489 80.7557L62.7943 81.4008L64.0851 81.1858L64.5154 80.5407L64.3002 79.0355L63.4397 76.4551L63.0095 76.025H61.9338ZM54.4043 76.4551L53.7589 78.1754L53.5437 79.4656V81.4008L53.974 81.8309H55.4799L55.9102 81.1858L56.1253 77.1002L55.695 76.4551H54.4043ZM58.4917 76.4551L57.8463 76.8852L57.6312 77.5303L57.8463 81.4008L58.4917 82.0459L59.9976 81.8309L60.2128 81.4008L59.9976 77.9603L59.5674 76.6701L58.4917 76.4551ZM15.2506 77.7453L12.669 78.8205L11.8085 79.8956L12.0236 81.4008L13.0993 83.1211L13.5296 83.5511H15.0355L17.617 82.0459L17.8322 81.6159V80.3257L16.7565 78.3904L15.896 77.7453H15.2506ZM48.5957 81.6159L46.8747 83.1211L43.8629 90.0021L41.2813 96.453L41.0662 98.1733L41.7116 99.4635L43.2175 100.754L47.7352 102.044L51.3924 102.689L53.1135 102.904H61.7187L67.3121 102.044L69.4634 101.399L70.7541 100.539L71.3995 99.4635L71.6147 97.9582L69.6785 92.1524L66.6667 83.9812L65.591 82.476L64.7305 82.0459H63.2246L61.0733 82.476L56.9858 82.691L52.6832 82.261L50.3168 81.6159H48.5957ZM19.7683 85.4864L17.8322 86.7766L16.9716 87.6367V89.142L17.8322 90.4322L19.1229 91.5073H20.1986L22.565 89.572L22.9953 88.7119L22.7801 87.6367L21.2742 85.7015L19.7683 85.4864ZM25.792 92.1524L24.2861 93.4426L23.4255 94.5177L23.2104 95.5929L24.0709 96.8831L25.3617 97.9582L26.8676 98.1733L27.9433 97.0981L29.234 95.5929V94.0877L28.1584 93.0125L27.0827 92.1524H25.792ZM86.0284 93.6576L84.0922 94.9478L83.4468 96.023L83.6619 97.0981L85.383 99.4635L86.4586 99.8935L88.1797 99.0334L89.4704 97.5282V96.453L87.3191 93.8727L86.0284 93.6576ZM33.3215 97.3131L32.2459 98.3883L31.1702 100.109L30.9551 101.399L32.6761 102.904L33.5366 103.334H35.0426L35.9031 102.259L36.9787 99.8935L36.7636 98.8184L34.8274 97.5282L33.3215 97.3131ZM78.2837 98.6033L76.1324 99.6785L75.7021 100.539L75.9173 101.614L76.7778 103.979L77.6383 104.624L79.1442 104.409L80.8652 103.549L81.5106 102.904L81.2955 101.399L80.0047 99.0334L79.5745 98.6033H78.2837ZM41.2813 101.184L40.2057 102.904L39.5603 104.839L39.9905 105.914L41.2813 106.775L41.9267 106.99H43.8629L44.5083 106.344L45.1537 103.979V102.474L43.8629 101.614L42.5721 101.184H41.2813ZM69.4634 102.044L67.7423 102.689L67.3121 103.119V104.624L67.9574 107.205L68.3877 107.635H70.539L72.0449 106.99L72.6903 106.344L72.4752 104.409L71.6147 102.259L71.3995 102.044H69.4634ZM50.1017 103.334L49.4563 103.979L48.8109 107.42L49.4563 108.495L50.747 108.925H52.8983L53.7589 108.28L53.974 107.635V104.194L53.1135 103.549L52.4681 103.334H50.1017ZM60.4279 103.549L58.7069 103.979L58.2766 104.839V107.635L58.7069 108.71L59.3522 109.14H61.7187L62.7943 108.71L63.2246 108.28V105.269L62.7943 103.979L61.9338 103.549H60.4279Z" fill="black"/>
</g>
<defs>
<clipPath id="clip0_2033_162">
<rect width="292" height="117" fill="white"/>
</clipPath>
</defs>
</svg>
